G04*
G04 #@! TF.GenerationSoftware,Altium Limited,Altium Designer,24.1.2 (44)*
G04*
G04 Layer_Color=65535*
%FSLAX44Y44*%
%MOMM*%
G71*
G04*
G04 #@! TF.SameCoordinates,46E7BA1B-DEE9-4666-83E5-56E7B7A1CBDE*
G04*
G04*
G04 #@! TF.FilePolarity,Positive*
G04*
G01*
G75*
%ADD10C,0.2500*%
%ADD11C,0.2540*%
%ADD12C,0.1270*%
%ADD13C,0.2000*%
%ADD14C,0.4000*%
%ADD15C,0.2032*%
%ADD16C,0.1500*%
D10*
X1067835Y863346D02*
X1067774Y865882D01*
X1067590Y868413D01*
X1067284Y870932D01*
X1066857Y873433D01*
X1066309Y875910D01*
X1065643Y878358D01*
X1064859Y880771D01*
X1063959Y883143D01*
X1062946Y885470D01*
X1061821Y887744D01*
X1060588Y889961D01*
X1059249Y892117D01*
X1057808Y894205D01*
X1056268Y896221D01*
X1054632Y898160D01*
X1052904Y900018D01*
X1051088Y901790D01*
X1049189Y903473D01*
X1047211Y905061D01*
X1045158Y906553D01*
X1043036Y907943D01*
X1040849Y909229D01*
X1038602Y910408D01*
X1036301Y911478D01*
X1033952Y912434D01*
X1031558Y913277D01*
X1029127Y914002D01*
X1026664Y914609D01*
X1024174Y915097D01*
X1021663Y915463D01*
X1019138Y915708D01*
X1016603Y915831D01*
X1014066D01*
X1011532Y915708D01*
X1009007Y915463D01*
X1006496Y915097D01*
X1004006Y914609D01*
X1001543Y914002D01*
X999111Y913277D01*
X996718Y912434D01*
X994368Y911478D01*
X992067Y910408D01*
X989821Y909229D01*
X987634Y907943D01*
X985511Y906553D01*
X983459Y905061D01*
X981481Y903473D01*
X979582Y901790D01*
X977766Y900018D01*
X976038Y898160D01*
X974402Y896221D01*
X972861Y894205D01*
X971420Y892117D01*
X970081Y889961D01*
X968848Y887744D01*
X967724Y885470D01*
X966711Y883143D01*
X965811Y880771D01*
X965027Y878358D01*
X964360Y875910D01*
X963813Y873433D01*
X963386Y870932D01*
X963080Y868413D01*
X962896Y865882D01*
X962835Y863346D01*
X962896Y860810D01*
X963080Y858279D01*
X963386Y855760D01*
X963813Y853259D01*
X964360Y850782D01*
X965027Y848334D01*
X965811Y845921D01*
X966711Y843549D01*
X967724Y841223D01*
X968848Y838948D01*
X970081Y836731D01*
X971420Y834576D01*
X972861Y832487D01*
X974402Y830471D01*
X976038Y828532D01*
X977766Y826674D01*
X979581Y824902D01*
X981480Y823220D01*
X983459Y821631D01*
X985511Y820139D01*
X987634Y818749D01*
X989821Y817463D01*
X992067Y816284D01*
X994368Y815214D01*
X996718Y814258D01*
X999111Y813416D01*
X1001543Y812690D01*
X1004006Y812083D01*
X1006496Y811596D01*
X1009007Y811229D01*
X1011532Y810984D01*
X1014066Y810861D01*
X1016603Y810861D01*
X1019137Y810984D01*
X1021663Y811229D01*
X1024173Y811595D01*
X1026663Y812083D01*
X1029127Y812690D01*
X1031558Y813416D01*
X1033951Y814258D01*
X1036301Y815214D01*
X1038602Y816284D01*
X1040849Y817463D01*
X1043036Y818749D01*
X1045158Y820139D01*
X1047211Y821631D01*
X1049189Y823219D01*
X1051088Y824902D01*
X1052904Y826674D01*
X1054632Y828532D01*
X1056268Y830471D01*
X1057808Y832487D01*
X1059249Y834575D01*
X1060588Y836730D01*
X1061821Y838948D01*
X1062946Y841222D01*
X1063959Y843548D01*
X1064859Y845921D01*
X1065643Y848334D01*
X1066309Y850782D01*
X1066857Y853259D01*
X1067284Y855760D01*
X1067590Y858279D01*
X1067774Y860809D01*
X1067835Y863346D01*
D11*
X1183640Y1054100D02*
X1183524Y1056641D01*
X1183178Y1059160D01*
X1182604Y1061638D01*
X1181807Y1064053D01*
X1180794Y1066386D01*
X1179573Y1068617D01*
X1178153Y1070728D01*
X1176548Y1072701D01*
X1174771Y1074520D01*
X1172835Y1076169D01*
X1170757Y1077636D01*
X1168554Y1078907D01*
X1166245Y1079974D01*
X1163849Y1080825D01*
X1161385Y1081456D01*
X1158873Y1081859D01*
X1156336Y1082033D01*
X1153793Y1081975D01*
X1151266Y1081686D01*
X1148776Y1081169D01*
X1146344Y1080427D01*
X1143988Y1079467D01*
X1141730Y1078297D01*
X1139588Y1076926D01*
X1137579Y1075366D01*
X1135720Y1073630D01*
X1134027Y1071733D01*
X1132513Y1069689D01*
X1131191Y1067516D01*
X1130073Y1065231D01*
X1129167Y1062855D01*
X1128481Y1060406D01*
X1128020Y1057905D01*
X1127789Y1055372D01*
Y1052828D01*
X1128020Y1050295D01*
X1128481Y1047794D01*
X1129167Y1045345D01*
X1130073Y1042969D01*
X1131191Y1040684D01*
X1132513Y1038511D01*
X1134027Y1036467D01*
X1135720Y1034570D01*
X1137579Y1032834D01*
X1139588Y1031274D01*
X1141730Y1029903D01*
X1143988Y1028733D01*
X1146344Y1027773D01*
X1148776Y1027031D01*
X1151266Y1026514D01*
X1153793Y1026225D01*
X1156336Y1026167D01*
X1158873Y1026341D01*
X1161385Y1026744D01*
X1163848Y1027375D01*
X1166245Y1028226D01*
X1168554Y1029293D01*
X1170757Y1030564D01*
X1172835Y1032031D01*
X1174771Y1033680D01*
X1176548Y1035499D01*
X1178153Y1037472D01*
X1179572Y1039583D01*
X1180794Y1041814D01*
X1181807Y1044146D01*
X1182604Y1046562D01*
X1183178Y1049040D01*
X1183524Y1051559D01*
X1183640Y1054100D01*
X1139190Y783336D02*
X1140202Y780893D01*
X1142645Y779881D01*
X914400Y1009650D02*
X916830Y1010133D01*
X918890Y1011510D01*
X920267Y1013570D01*
X920750Y1016000D01*
X920267Y1018430D01*
X918890Y1020490D01*
X916830Y1021867D01*
X914400Y1022350D01*
X1183640Y977900D02*
X1183524Y980441D01*
X1183178Y982960D01*
X1182604Y985438D01*
X1181807Y987853D01*
X1180794Y990186D01*
X1179573Y992417D01*
X1178153Y994528D01*
X1176548Y996501D01*
X1174771Y998320D01*
X1172835Y999969D01*
X1170757Y1001436D01*
X1168554Y1002708D01*
X1166245Y1003774D01*
X1163849Y1004625D01*
X1161385Y1005256D01*
X1158873Y1005659D01*
X1156336Y1005833D01*
X1153793Y1005775D01*
X1151266Y1005486D01*
X1148776Y1004968D01*
X1146344Y1004227D01*
X1143988Y1003267D01*
X1141730Y1002097D01*
X1139588Y1000726D01*
X1137579Y999166D01*
X1135720Y997430D01*
X1134027Y995533D01*
X1132513Y993489D01*
X1131191Y991316D01*
X1130073Y989031D01*
X1129167Y986655D01*
X1128481Y984206D01*
X1128020Y981704D01*
X1127789Y979172D01*
Y976628D01*
X1128020Y974096D01*
X1128481Y971594D01*
X1129167Y969145D01*
X1130073Y966769D01*
X1131191Y964484D01*
X1132513Y962311D01*
X1134027Y960267D01*
X1135720Y958370D01*
X1137579Y956634D01*
X1139588Y955074D01*
X1141730Y953703D01*
X1143988Y952533D01*
X1146344Y951573D01*
X1148776Y950832D01*
X1151266Y950314D01*
X1153793Y950025D01*
X1156336Y949967D01*
X1158873Y950141D01*
X1161385Y950544D01*
X1163848Y951175D01*
X1166245Y952026D01*
X1168554Y953092D01*
X1170757Y954364D01*
X1172835Y955831D01*
X1174771Y957480D01*
X1176548Y959299D01*
X1178153Y961272D01*
X1179572Y963383D01*
X1180794Y965614D01*
X1181807Y967946D01*
X1182604Y970362D01*
X1183178Y972840D01*
X1183524Y975359D01*
X1183640Y977900D01*
X974341Y937510D02*
X971802Y940049D01*
X966723D01*
X964184Y937510D01*
Y927353D01*
X966723Y924814D01*
X971802D01*
X974341Y927353D01*
X979419Y924814D02*
X984497D01*
X981958D01*
Y940049D01*
X979419Y937510D01*
X550923Y904490D02*
X548383Y907029D01*
X543305D01*
X540766Y904490D01*
Y894333D01*
X543305Y891794D01*
X548383D01*
X550923Y894333D01*
X556001Y904490D02*
X558540Y907029D01*
X563619D01*
X566158Y904490D01*
Y901951D01*
X563619Y899411D01*
X561079D01*
X563619D01*
X566158Y896872D01*
Y894333D01*
X563619Y891794D01*
X558540D01*
X556001Y894333D01*
X1102364Y1094737D02*
Y1079502D01*
X1109982D01*
X1112521Y1082042D01*
Y1092198D01*
X1109982Y1094737D01*
X1102364D01*
X1127756Y1079502D02*
X1117599D01*
X1127756Y1089659D01*
Y1092198D01*
X1125217Y1094737D01*
X1120138D01*
X1117599Y1092198D01*
X574548Y1020572D02*
Y1035807D01*
X582165D01*
X584705Y1033268D01*
Y1028189D01*
X582165Y1025650D01*
X574548D01*
X589783Y1020572D02*
X594861D01*
X592322D01*
Y1035807D01*
X589783Y1033268D01*
X1135380Y890778D02*
Y906013D01*
X1142998D01*
X1145537Y903474D01*
Y898395D01*
X1142998Y895856D01*
X1135380D01*
X1160772Y890778D02*
X1150615D01*
X1160772Y900935D01*
Y903474D01*
X1158233Y906013D01*
X1153154D01*
X1150615Y903474D01*
X1231389Y1077467D02*
Y1087624D01*
X1228849Y1090163D01*
X1223771D01*
X1221232Y1087624D01*
Y1077467D01*
X1223771Y1074928D01*
X1228849D01*
X1226310Y1080006D02*
X1231389Y1074928D01*
X1228849D02*
X1231389Y1077467D01*
X1246624Y1074928D02*
X1236467D01*
X1246624Y1085085D01*
Y1087624D01*
X1244085Y1090163D01*
X1239006D01*
X1236467Y1087624D01*
X742950Y1075944D02*
Y1091179D01*
X750567D01*
X753107Y1088640D01*
Y1083561D01*
X750567Y1081022D01*
X742950D01*
X748028D02*
X753107Y1075944D01*
X768342Y1091179D02*
X758185D01*
Y1083561D01*
X763263Y1086101D01*
X765803D01*
X768342Y1083561D01*
Y1078483D01*
X765803Y1075944D01*
X760724D01*
X758185Y1078483D01*
X915670Y1084321D02*
Y1071625D01*
X918209Y1069086D01*
X923288D01*
X925827Y1071625D01*
Y1084321D01*
X930905Y1069086D02*
X935983D01*
X933444D01*
Y1084321D01*
X930905Y1081782D01*
X686816Y913379D02*
Y900683D01*
X689355Y898144D01*
X694434D01*
X696973Y900683D01*
Y913379D01*
X712208Y898144D02*
X702051D01*
X712208Y908301D01*
Y910840D01*
X709669Y913379D01*
X704590D01*
X702051Y910840D01*
X577850Y1075944D02*
Y1091179D01*
X585467D01*
X588007Y1088640D01*
Y1083561D01*
X585467Y1081022D01*
X577850D01*
X582928D02*
X588007Y1075944D01*
X603242D02*
X593085D01*
X603242Y1086101D01*
Y1088640D01*
X600703Y1091179D01*
X595624D01*
X593085Y1088640D01*
X742950Y1012444D02*
Y1027679D01*
X750567D01*
X753107Y1025140D01*
Y1020061D01*
X750567Y1017522D01*
X742950D01*
X748028D02*
X753107Y1012444D01*
X765803D02*
Y1027679D01*
X758185Y1020061D01*
X768342D01*
X742950Y948944D02*
Y964179D01*
X750567D01*
X753107Y961640D01*
Y956562D01*
X750567Y954022D01*
X742950D01*
X748028D02*
X753107Y948944D01*
X758185Y961640D02*
X760724Y964179D01*
X765803D01*
X768342Y961640D01*
Y959101D01*
X765803Y956562D01*
X763263D01*
X765803D01*
X768342Y954022D01*
Y951483D01*
X765803Y948944D01*
X760724D01*
X758185Y951483D01*
X577850Y961644D02*
Y976879D01*
X585467D01*
X588007Y974340D01*
Y969261D01*
X585467Y966722D01*
X577850D01*
X582928D02*
X588007Y961644D01*
X593085D02*
X598163D01*
X595624D01*
Y976879D01*
X593085Y974340D01*
X1231900Y998222D02*
Y1008378D01*
X1229361Y1010918D01*
X1224283D01*
X1221743Y1008378D01*
Y998222D01*
X1224283Y995683D01*
X1229361D01*
X1226822Y1000761D02*
X1231900Y995683D01*
X1229361D02*
X1231900Y998222D01*
X1236978Y995683D02*
X1242057D01*
X1239518D01*
Y1010918D01*
X1236978Y1008378D01*
X1107443Y1018538D02*
Y1003303D01*
X1115061D01*
X1117600Y1005842D01*
Y1015998D01*
X1115061Y1018538D01*
X1107443D01*
X1122678Y1003303D02*
X1127757D01*
X1125218D01*
Y1018538D01*
X1122678Y1015998D01*
X614423Y904490D02*
X611884Y907029D01*
X606805D01*
X604266Y904490D01*
Y894333D01*
X606805Y891794D01*
X611884D01*
X614423Y894333D01*
X629658Y891794D02*
X619501D01*
X629658Y901951D01*
Y904490D01*
X627119Y907029D01*
X622040D01*
X619501Y904490D01*
D12*
X1188818Y1054100D02*
X1188720Y1056635D01*
X1188429Y1059155D01*
X1187946Y1061646D01*
X1187274Y1064092D01*
X1186417Y1066480D01*
X1185379Y1068795D01*
X1184167Y1071024D01*
X1182788Y1073153D01*
X1181250Y1075171D01*
X1179562Y1077065D01*
X1177734Y1078824D01*
X1175777Y1080438D01*
X1173702Y1081898D01*
X1171521Y1083194D01*
X1169247Y1084320D01*
X1166894Y1085268D01*
X1164475Y1086034D01*
X1162005Y1086612D01*
X1159498Y1086999D01*
X1156969Y1087193D01*
X1154432D01*
X1151902Y1086999D01*
X1149395Y1086612D01*
X1146925Y1086034D01*
X1144506Y1085268D01*
X1142153Y1084320D01*
X1139879Y1083194D01*
X1137698Y1081898D01*
X1135623Y1080438D01*
X1133666Y1078824D01*
X1131838Y1077065D01*
X1130150Y1075171D01*
X1128612Y1073153D01*
X1127233Y1071024D01*
X1126021Y1068795D01*
X1124983Y1066480D01*
X1124126Y1064092D01*
X1123454Y1061646D01*
X1122971Y1059155D01*
X1122680Y1056635D01*
X1122582Y1054100D01*
X1122680Y1051565D01*
X1122971Y1049045D01*
X1123454Y1046554D01*
X1124126Y1044108D01*
X1124983Y1041720D01*
X1126021Y1039405D01*
X1127233Y1037176D01*
X1128612Y1035047D01*
X1130150Y1033029D01*
X1131838Y1031135D01*
X1133666Y1029376D01*
X1135623Y1027762D01*
X1137698Y1026302D01*
X1139879Y1025006D01*
X1142153Y1023880D01*
X1144506Y1022932D01*
X1146925Y1022166D01*
X1149395Y1021588D01*
X1151902Y1021201D01*
X1154432Y1021007D01*
X1156969D01*
X1159498Y1021201D01*
X1162005Y1021588D01*
X1164476Y1022166D01*
X1166894Y1022932D01*
X1169247Y1023880D01*
X1171521Y1025006D01*
X1173702Y1026302D01*
X1175777Y1027762D01*
X1177734Y1029376D01*
X1179562Y1031135D01*
X1181250Y1033029D01*
X1182788Y1035047D01*
X1184167Y1037176D01*
X1185379Y1039405D01*
X1186417Y1041720D01*
X1187274Y1044108D01*
X1187946Y1046554D01*
X1188429Y1049045D01*
X1188720Y1051565D01*
X1188818Y1054100D01*
Y977900D02*
X1188720Y980435D01*
X1188429Y982955D01*
X1187946Y985446D01*
X1187274Y987892D01*
X1186417Y990280D01*
X1185379Y992595D01*
X1184167Y994824D01*
X1182788Y996953D01*
X1181250Y998971D01*
X1179562Y1000865D01*
X1177734Y1002624D01*
X1175777Y1004238D01*
X1173702Y1005698D01*
X1171521Y1006994D01*
X1169247Y1008120D01*
X1166894Y1009068D01*
X1164475Y1009834D01*
X1162005Y1010412D01*
X1159498Y1010799D01*
X1156969Y1010993D01*
X1154432D01*
X1151902Y1010799D01*
X1149395Y1010412D01*
X1146925Y1009834D01*
X1144506Y1009068D01*
X1142153Y1008120D01*
X1139879Y1006994D01*
X1137698Y1005698D01*
X1135623Y1004238D01*
X1133666Y1002624D01*
X1131838Y1000865D01*
X1130150Y998971D01*
X1128612Y996953D01*
X1127233Y994824D01*
X1126021Y992595D01*
X1124983Y990280D01*
X1124126Y987892D01*
X1123454Y985446D01*
X1122971Y982955D01*
X1122680Y980435D01*
X1122582Y977900D01*
X1122680Y975365D01*
X1122971Y972845D01*
X1123454Y970354D01*
X1124126Y967908D01*
X1124983Y965520D01*
X1126021Y963205D01*
X1127233Y960976D01*
X1128612Y958847D01*
X1130150Y956829D01*
X1131838Y954935D01*
X1133666Y953176D01*
X1135623Y951562D01*
X1137698Y950102D01*
X1139879Y948806D01*
X1142153Y947680D01*
X1144506Y946732D01*
X1146925Y945966D01*
X1149395Y945388D01*
X1151902Y945001D01*
X1154432Y944807D01*
X1156969D01*
X1159498Y945001D01*
X1162005Y945388D01*
X1164476Y945966D01*
X1166894Y946732D01*
X1169247Y947680D01*
X1171521Y948806D01*
X1173702Y950102D01*
X1175777Y951562D01*
X1177734Y953176D01*
X1179562Y954935D01*
X1181250Y956829D01*
X1182788Y958847D01*
X1184167Y960976D01*
X1185379Y963205D01*
X1186417Y965520D01*
X1187274Y967908D01*
X1187946Y970354D01*
X1188429Y972845D01*
X1188720Y975365D01*
X1188818Y977900D01*
D13*
X1259600Y1061200D02*
X1257480Y1062640D01*
X1255223Y1063854D01*
X1252853Y1064829D01*
X1250395Y1065555D01*
X1247876Y1066023D01*
X1245321Y1066230D01*
X1242759Y1066172D01*
X1240217Y1065850D01*
X1237721Y1065269D01*
X1235298Y1064433D01*
X1232975Y1063352D01*
X1230775Y1062037D01*
X1228722Y1060503D01*
X1226838Y1058765D01*
X1225144Y1056843D01*
X1223656Y1054756D01*
X1222391Y1052527D01*
X1221363Y1050180D01*
X1220582Y1047739D01*
X1220057Y1045230D01*
X1219793Y1042681D01*
Y1040119D01*
X1220057Y1037570D01*
X1220582Y1035061D01*
X1221363Y1032620D01*
X1222391Y1030273D01*
X1223656Y1028044D01*
X1225144Y1025957D01*
X1226838Y1024035D01*
X1228722Y1022297D01*
X1230775Y1020763D01*
X1232975Y1019448D01*
X1235298Y1018367D01*
X1237721Y1017531D01*
X1240217Y1016950D01*
X1242759Y1016628D01*
X1245321Y1016570D01*
X1247876Y1016777D01*
X1250395Y1017245D01*
X1252853Y1017971D01*
X1255223Y1018946D01*
X1257480Y1020160D01*
X1259600Y1021600D01*
Y985000D02*
X1257480Y986440D01*
X1255223Y987654D01*
X1252853Y988629D01*
X1250395Y989355D01*
X1247876Y989823D01*
X1245321Y990030D01*
X1242759Y989972D01*
X1240217Y989650D01*
X1237721Y989069D01*
X1235298Y988233D01*
X1232975Y987152D01*
X1230775Y985837D01*
X1228722Y984303D01*
X1226838Y982565D01*
X1225144Y980643D01*
X1223656Y978556D01*
X1222391Y976327D01*
X1221363Y973980D01*
X1220582Y971539D01*
X1220057Y969031D01*
X1219793Y966481D01*
Y963919D01*
X1220057Y961369D01*
X1220582Y958861D01*
X1221363Y956420D01*
X1222391Y954073D01*
X1223656Y951844D01*
X1225144Y949757D01*
X1226838Y947835D01*
X1228722Y946097D01*
X1230775Y944563D01*
X1232975Y943248D01*
X1235298Y942167D01*
X1237721Y941331D01*
X1240217Y940750D01*
X1242759Y940428D01*
X1245321Y940370D01*
X1247876Y940577D01*
X1250395Y941045D01*
X1252853Y941771D01*
X1255223Y942746D01*
X1257480Y943960D01*
X1259600Y945400D01*
D14*
X1008985Y793496D02*
X1021685D01*
X1015335Y787146D02*
Y799846D01*
X539750Y793750D02*
Y882650D01*
X577850Y793750D02*
Y882650D01*
X539750Y793750D02*
X577850D01*
X539750Y882650D02*
X577850D01*
X574040Y990600D02*
X594360D01*
X574040Y1010920D02*
X594360D01*
X574040Y990600D02*
Y1010920D01*
X594360Y990600D02*
Y1010920D01*
X1142137Y779738D02*
X1282944D01*
X1271500Y780500D02*
Y870750D01*
X1211580Y871728D02*
X1288288D01*
X1139444Y860806D02*
Y864616D01*
X1139190Y783336D02*
Y790194D01*
X1288288Y779738D02*
Y871728D01*
X1282192Y779738D02*
X1288288D01*
X1259600Y1021600D02*
Y1061200D01*
X774700Y1066800D02*
X850900D01*
X774700Y1041400D02*
X850900D01*
X764286Y1054100D02*
X774700D01*
X851154D02*
X861060D01*
X774700Y1041400D02*
Y1066800D01*
X850900Y1041400D02*
Y1066800D01*
X914400Y990600D02*
Y1009650D01*
Y1022350D02*
Y1041400D01*
X1092200Y990600D02*
Y1041400D01*
X914400D02*
X1092200D01*
X914400Y990600D02*
X1092200D01*
X698500Y787400D02*
Y800100D01*
X723900Y787400D02*
Y800100D01*
X822706Y787400D02*
Y889000D01*
X698500Y876300D02*
Y889000D01*
X685800Y787400D02*
Y889000D01*
X822706Y863600D02*
X858266D01*
X822706Y838200D02*
X858266D01*
X822706Y812800D02*
X858266D01*
X685800Y787400D02*
X698500D01*
Y800100D02*
X723900D01*
X724662Y787400D02*
X822706D01*
X698500Y876300D02*
X723900D01*
X685800Y889000D02*
X698500D01*
X723900Y876300D02*
Y889000D01*
X822706D01*
X609600Y1041400D02*
X685800D01*
X609600Y1066800D02*
X685800D01*
Y1054100D02*
X696214D01*
X599440D02*
X609346D01*
X685800Y1041400D02*
Y1066800D01*
X609600Y1041400D02*
Y1066800D01*
X1259600Y945400D02*
Y985000D01*
X774700Y977900D02*
Y1003300D01*
X850900Y977900D02*
Y1003300D01*
X764540Y990600D02*
X774446D01*
X850900D02*
X861314D01*
X774700Y1003300D02*
X850900D01*
X774700Y977900D02*
X850900D01*
X774700Y914400D02*
Y939800D01*
X850900Y914400D02*
Y939800D01*
X764540Y927100D02*
X774446D01*
X850900D02*
X861314D01*
X774700Y939800D02*
X850900D01*
X774700Y914400D02*
X850900D01*
X685800Y927100D02*
Y952500D01*
X609600Y927100D02*
Y952500D01*
X686054Y939800D02*
X695960D01*
X599186D02*
X609600D01*
Y927100D02*
X685800D01*
X609600Y952500D02*
X685800D01*
X603250Y882650D02*
X641350D01*
X603250Y793750D02*
X641350D01*
Y882650D01*
X603250Y793750D02*
Y882650D01*
D15*
X1233170Y796290D02*
X1237402D01*
X1235286D01*
Y808986D01*
X1233170Y806870D01*
D16*
X1268900Y1058996D02*
X1271399Y1061495D01*
X1276398D01*
X1278897Y1058996D01*
Y1056497D01*
X1276398Y1053998D01*
X1273898D01*
X1276398D01*
X1278897Y1051498D01*
Y1048999D01*
X1276398Y1046500D01*
X1271399D01*
X1268900Y1048999D01*
X1271200Y1022400D02*
X1276198D01*
X1273699D01*
Y1037395D01*
X1271200Y1034896D01*
Y946200D02*
X1276198D01*
X1273699D01*
Y961195D01*
X1271200Y958696D01*
X1268900Y982796D02*
X1271399Y985295D01*
X1276398D01*
X1278897Y982796D01*
Y980297D01*
X1276398Y977798D01*
X1273898D01*
X1276398D01*
X1278897Y975298D01*
Y972799D01*
X1276398Y970300D01*
X1271399D01*
X1268900Y972799D01*
M02*
