M48
;Layer_Color=9474304
;FILE_FORMAT=4:4
METRIC,LZ
;TYPE=PLATED
T01F00S00C0.9000
%
T01
X005588Y008128
Y008636
X006223
Y008128
X007112Y008382
Y009398
X007493Y009271
Y009906
Y010541
X007112
X005842
Y0100076
Y009398
X008763Y009271
Y009906
Y010541
X009271
X009525
X009779
X010033
X010287
X010541
X010795
X01143
X011684
Y009779
X01143
X010795
X010541
X010287
X010033
X009779
X009525
X009271
X00873506Y008636
Y008382
Y008128
X01015335Y00838346
Y00888346
X01174226Y0087194
X01144Y008255
X012065
X012446Y009525
Y009652
Y009779
Y010287
Y010414
Y010541
M30
